<svg width="156" height="169" viewBox="0 0 156 169" fill="none" xmlns="http://www.w3.org/2000/svg">
<path d="M102.11 13.7953C102.367 13.9267 102.618 13.9929 102.866 13.9938C103.119 13.9924 103.348 13.9293 103.552 13.8044C103.761 13.6817 103.923 13.4996 104.038 13.2581L105.518 14.0166C105.313 14.486 105.001 14.8479 104.579 15.1023C104.158 15.3567 103.685 15.4887 103.16 15.4983C102.636 15.5034 102.114 15.3722 101.593 15.1049C101.054 14.8286 100.624 14.4933 100.302 14.0988C99.9829 13.6998 99.7605 13.2631 99.6354 12.7888C99.5102 12.3145 99.4717 11.8217 99.5198 11.3104C99.5723 10.8013 99.7029 10.2941 99.9119 9.7887L100.01 9.55179C100.219 9.04639 100.48 8.606 100.793 8.23061C101.112 7.85293 101.474 7.56282 101.879 7.36028C102.284 7.15774 102.726 7.06419 103.204 7.07962C103.684 7.09054 104.191 7.23301 104.725 7.50703C105.29 7.79664 105.737 8.16793 106.066 8.62091C106.397 9.06937 106.598 9.56355 106.669 10.1035C106.747 10.6411 106.678 11.1851 106.461 11.7356L104.981 10.977C105.08 10.6996 105.116 10.4225 105.088 10.1457C105.066 9.86671 104.978 9.6083 104.824 9.3705C104.674 9.13493 104.455 8.94363 104.169 8.7966C103.851 8.63397 103.561 8.56688 103.296 8.59532C103.033 8.61924 102.796 8.7162 102.583 8.88619C102.373 9.05166 102.183 9.26318 102.013 9.52073C101.85 9.776 101.705 10.0548 101.58 10.3571L101.483 10.594C101.358 10.8964 101.26 11.2019 101.191 11.5107C101.121 11.8195 101.098 12.1168 101.122 12.4026C101.152 12.6861 101.244 12.949 101.396 13.1913C101.551 13.4291 101.789 13.6304 102.11 13.7953Z" fill="#006579"/>
<path d="M113.651 20.4913L116.793 15.3042L118.212 16.3703L114.101 23.1568L112.764 22.1524L113.651 20.4913ZM114.705 19.2298L115.188 19.5741C114.912 20.0299 114.61 20.4149 114.283 20.7291C113.959 21.0391 113.613 21.2629 113.245 21.4004C112.88 21.5337 112.497 21.5653 112.096 21.4951C111.697 21.4207 111.285 21.2235 110.859 20.9033C110.55 20.6713 110.296 20.4103 110.096 20.1203C109.897 19.8303 109.764 19.5144 109.698 19.1728C109.636 18.834 109.651 18.4655 109.745 18.0671C109.838 17.6688 110.021 17.2459 110.292 16.7985L112.948 12.4143L114.36 13.476L111.697 17.8728C111.547 18.1195 111.449 18.347 111.403 18.5554C111.359 18.7596 111.353 18.9471 111.386 19.1179C111.419 19.2888 111.486 19.4421 111.585 19.5779C111.685 19.7137 111.805 19.8345 111.946 19.9402C112.349 20.2427 112.716 20.397 113.048 20.403C113.386 20.4077 113.691 20.3026 113.964 20.0875C114.24 19.8753 114.488 19.5894 114.705 19.2298Z" fill="#006579"/>
<path d="M122.756 28.8928C122.87 28.7599 122.944 28.608 122.976 28.437C123.011 28.2623 122.982 28.04 122.888 27.7702C122.798 27.504 122.622 27.1598 122.359 26.7378C122.133 26.3621 121.941 25.9983 121.784 25.6465C121.634 25.2945 121.534 24.9578 121.485 24.6363C121.436 24.3148 121.447 24.0084 121.519 23.717C121.591 23.4255 121.735 23.1543 121.951 22.9033C122.16 22.6597 122.407 22.4806 122.691 22.3658C122.975 22.2511 123.278 22.2067 123.601 22.2324C123.924 22.2582 124.255 22.3599 124.594 22.5376C124.936 22.7188 125.267 22.98 125.586 23.3211C126.039 23.8043 126.354 24.3032 126.531 24.8177C126.714 25.332 126.769 25.8255 126.694 26.2982C126.622 26.7672 126.433 27.1807 126.125 27.5387L124.921 26.2542C125.058 26.0954 125.148 25.9087 125.192 25.694C125.243 25.4791 125.234 25.2528 125.163 25.0151C125.096 24.7737 124.955 24.5376 124.738 24.3066C124.532 24.0863 124.329 23.9402 124.129 23.8683C123.935 23.7963 123.756 23.782 123.591 23.8253C123.429 23.8722 123.29 23.964 123.172 24.1005C123.086 24.2002 123.025 24.3084 122.989 24.4251C122.958 24.5417 122.956 24.6777 122.983 24.8329C123.012 24.9845 123.074 25.1644 123.17 25.3726C123.269 25.5843 123.406 25.8332 123.581 26.1194C123.911 26.656 124.159 27.1581 124.325 27.6257C124.498 28.0931 124.563 28.5303 124.519 28.937C124.479 29.3401 124.305 29.7207 123.997 30.0787C123.768 30.3445 123.507 30.533 123.213 30.6443C122.926 30.7555 122.616 30.7892 122.283 30.7455C121.953 30.6982 121.615 30.5748 121.269 30.3756C120.927 30.1799 120.589 29.9044 120.256 29.5491C119.767 29.0267 119.435 28.4883 119.26 27.934C119.089 27.3759 119.045 26.8514 119.129 26.3604C119.22 25.8692 119.407 25.4594 119.689 25.1309L120.853 26.3728C120.653 26.6343 120.545 26.8975 120.528 27.1625C120.517 27.4272 120.566 27.6817 120.676 27.9258C120.792 28.1697 120.939 28.3877 121.119 28.5795C121.336 28.8105 121.544 28.9728 121.744 29.0664C121.948 29.1563 122.136 29.1868 122.308 29.1578C122.483 29.1251 122.632 29.0368 122.756 28.8928Z" fill="#006579"/>
<path d="M134.065 33.977L133.099 34.8311L130.505 31.1937L131.47 30.3396L134.065 33.977ZM133.673 30.1031L134.698 31.5402L128.948 36.626C128.766 36.7877 128.645 36.9401 128.586 37.0831C128.533 37.2269 128.527 37.365 128.568 37.4975C128.609 37.6299 128.679 37.7657 128.778 37.9049C128.849 38.0043 128.922 38.0948 128.999 38.1766C129.075 38.2583 129.138 38.3221 129.189 38.3681L128.184 39.267C128.066 39.1768 127.937 39.0636 127.798 38.9272C127.662 38.7948 127.522 38.6272 127.377 38.4245C127.142 38.0945 126.986 37.7554 126.911 37.4072C126.839 37.0557 126.875 36.7 127.018 36.3402C127.161 35.9803 127.435 35.6208 127.841 35.2617L133.673 30.1031Z" fill="#006579"/>
<path d="M133.616 40.6884L133.756 40.5961C134.234 40.2831 134.716 40.0662 135.202 39.9455C135.692 39.822 136.162 39.7995 136.61 39.8779C137.064 39.9579 137.481 40.1438 137.861 40.4357C138.247 40.7292 138.574 41.1307 138.843 41.6402C139.114 42.154 139.27 42.6679 139.311 43.1818C139.358 43.6974 139.302 44.1958 139.144 44.6771C138.99 45.1557 138.745 45.6036 138.41 46.0206C138.079 46.4349 137.675 46.7986 137.197 47.1116L137.056 47.2039C136.578 47.517 136.096 47.7338 135.61 47.8546C135.124 47.9753 134.654 47.9957 134.199 47.9157C133.749 47.833 133.332 47.6471 132.948 47.3579C132.569 47.066 132.245 46.6653 131.976 46.1558C131.704 45.642 131.545 45.1273 131.498 44.6117C131.458 44.0978 131.515 43.6015 131.669 43.1229C131.827 42.6416 132.071 42.1938 132.402 41.7794C132.733 41.3651 133.138 41.0014 133.616 40.6884ZM134.581 42.157L134.44 42.2493C134.142 42.4446 133.877 42.6616 133.646 42.9002C133.414 43.1389 133.235 43.3929 133.108 43.6621C132.981 43.9314 132.917 44.2114 132.917 44.5022C132.916 44.793 132.995 45.0874 133.152 45.3853C133.305 45.6746 133.494 45.8876 133.72 46.0242C133.949 46.1652 134.199 46.2392 134.472 46.2463C134.746 46.2534 135.032 46.2024 135.332 46.0932C135.634 45.9884 135.934 45.8384 136.232 45.6431L136.373 45.5508C136.667 45.3581 136.926 45.1417 137.151 44.9013C137.383 44.6627 137.563 44.4052 137.692 44.129C137.823 43.857 137.889 43.5757 137.889 43.2849C137.896 42.9957 137.822 42.7043 137.667 42.4107C137.512 42.1171 137.318 41.9011 137.086 41.7628C136.859 41.6262 136.608 41.5556 136.331 41.5512C136.053 41.5468 135.765 41.5992 135.465 41.7083C135.17 41.8148 134.875 41.9643 134.581 42.157Z" fill="#006579"/>
<path d="M142.782 54.4674L136.853 56.6372L136.354 54.9442L143.796 52.2207L144.267 53.8153L142.782 54.4674ZM140.769 54.9008L140.606 54.3222C141.119 54.1343 141.613 54.0261 142.088 53.9979C142.562 53.9696 142.997 54.0231 143.392 54.1586C143.793 54.2923 144.135 54.5146 144.42 54.8255C144.711 55.1394 144.929 55.5446 145.076 56.041C145.178 56.3876 145.221 56.7221 145.204 57.0447C145.194 57.3703 145.114 57.6771 144.965 57.965C144.818 58.2577 144.596 58.5206 144.299 58.7538C144.003 58.9917 143.621 59.1962 143.154 59.3674L138.194 61.1822L137.695 59.4893L142.51 57.7273C142.872 57.5947 143.14 57.4345 143.313 57.2466C143.487 57.0633 143.588 56.8527 143.614 56.6148C143.646 56.3799 143.621 56.1219 143.538 55.8409C143.444 55.5224 143.304 55.2726 143.119 55.0915C142.935 54.915 142.719 54.7942 142.471 54.7293C142.223 54.6643 141.954 54.6485 141.664 54.6819C141.375 54.7154 141.076 54.7883 140.769 54.9008ZM142.6 59.4533L142.194 58.7225C142.643 58.558 143.086 58.466 143.522 58.4465C143.964 58.4299 144.373 58.4904 144.749 58.6278C145.131 58.7683 145.464 58.9916 145.747 59.2978C146.03 59.6041 146.243 59.996 146.383 60.4737C146.498 60.8624 146.548 61.2283 146.532 61.5713C146.522 61.9173 146.439 62.2383 146.283 62.5342C146.126 62.8302 145.888 63.099 145.568 63.3406C145.253 63.5806 144.847 63.7911 144.352 63.9724L139.537 65.7343L139.036 64.0343L143.857 62.2698C144.233 62.1322 144.508 61.9695 144.681 61.7816C144.856 61.5983 144.952 61.3918 144.971 61.1619C144.994 60.9303 144.964 60.674 144.881 60.393C144.804 60.1307 144.687 59.9165 144.532 59.7504C144.382 59.5873 144.202 59.4688 143.992 59.3951C143.787 59.3197 143.567 59.2863 143.33 59.2949C143.095 59.3082 142.852 59.361 142.6 59.4533Z" fill="#006579"/>
<path d="M152.924 81.7607L141.694 82.4184L141.61 80.6479L152.841 79.9902L152.924 81.7607Z" fill="#006579"/>
<path d="M143.167 92.3405L146.933 92.6595C147.215 92.6834 147.462 92.6529 147.673 92.5679C147.884 92.4829 148.053 92.3404 148.179 92.1404C148.305 91.9453 148.379 91.6918 148.4 91.3801C148.42 91.0927 148.388 90.8401 148.305 90.6224C148.222 90.4047 148.102 90.2303 147.944 90.0994C147.787 89.9685 147.604 89.8941 147.394 89.8764L147.514 88.1227C147.826 88.1491 148.122 88.2501 148.404 88.4259C148.685 88.6016 148.931 88.8429 149.14 89.1497C149.349 89.4565 149.505 89.8152 149.609 90.2258C149.713 90.6363 149.749 91.0901 149.715 91.587C149.674 92.1813 149.538 92.699 149.308 93.14C149.077 93.5859 148.75 93.9232 148.328 94.1521C147.911 94.3862 147.401 94.4777 146.797 94.4266L143.287 94.1292C142.927 94.0987 142.602 94.0957 142.311 94.1201C142.026 94.1497 141.775 94.2044 141.559 94.2841L141.442 94.2742L141.565 92.4694C141.761 92.4026 142.006 92.3573 142.301 92.3333C142.601 92.3146 142.89 92.317 143.167 92.3405ZM146.368 92.8689L145.28 92.7914L145.366 91.5272C145.388 91.2008 145.376 90.9108 145.33 90.6569C145.289 90.4036 145.215 90.1891 145.11 90.0136C145.004 89.8381 144.872 89.7019 144.712 89.6051C144.552 89.5082 144.368 89.4509 144.158 89.4332C143.949 89.4155 143.754 89.4479 143.572 89.5305C143.395 89.6135 143.251 89.7435 143.141 89.9203C143.031 90.1021 142.967 90.3269 142.949 90.5948C142.924 90.9553 142.975 91.2757 143.103 91.556C143.235 91.8416 143.403 92.0714 143.607 92.2454C143.815 92.4199 144.016 92.5202 144.21 92.5464L143.39 93.0502C143.195 92.9749 142.987 92.8569 142.768 92.6962C142.549 92.5356 142.343 92.3319 142.149 92.0852C141.96 91.8438 141.811 91.5592 141.701 91.2315C141.591 90.9086 141.55 90.5425 141.578 90.1333C141.613 89.6169 141.747 89.1652 141.979 88.7782C142.216 88.3916 142.517 88.0987 142.883 87.8994C143.254 87.7005 143.663 87.62 144.111 87.658C144.529 87.6934 144.894 87.8027 145.204 87.9858C145.519 88.1742 145.776 88.4311 145.974 88.7565C146.171 89.0868 146.311 89.4808 146.392 89.9385C146.478 90.3965 146.502 90.913 146.462 91.4878L146.368 92.8689Z" fill="#006579"/>
<path d="M151.634 103.507L151.251 105.229L142.043 102.691L140.45 102.078L140.796 100.52L151.634 103.507ZM143.181 108.357L143.033 108.317C142.468 108.161 141.963 107.954 141.516 107.694C141.073 107.441 140.706 107.137 140.415 106.784C140.123 106.436 139.923 106.047 139.813 105.617C139.708 105.194 139.71 104.737 139.819 104.247C139.925 103.765 140.108 103.371 140.366 103.063C140.624 102.755 140.945 102.525 141.328 102.373C141.71 102.225 142.146 102.141 142.635 102.119C143.124 102.097 143.651 102.131 144.215 102.22L144.687 102.351C145.229 102.566 145.709 102.809 146.127 103.081C146.551 103.355 146.901 103.656 147.177 103.985C147.457 104.32 147.647 104.688 147.748 105.09C147.847 105.496 147.844 105.937 147.738 106.414C147.628 106.909 147.437 107.319 147.166 107.643C146.893 107.973 146.554 108.215 146.15 108.372C145.751 108.53 145.3 108.605 144.797 108.598C144.293 108.596 143.755 108.516 143.181 108.357ZM143.415 106.595L143.563 106.636C143.907 106.73 144.235 106.79 144.549 106.816C144.867 106.843 145.157 106.822 145.417 106.752C145.676 106.687 145.896 106.561 146.078 106.373C146.263 106.192 146.392 105.937 146.465 105.608C146.532 105.303 146.539 105.027 146.484 104.779C146.429 104.532 146.329 104.309 146.183 104.112C146.037 103.916 145.856 103.742 145.64 103.591C145.423 103.445 145.181 103.321 144.914 103.217L143.637 102.865C143.275 102.811 142.93 102.812 142.603 102.868C142.28 102.931 142 103.066 141.764 103.274C141.533 103.483 141.373 103.79 141.283 104.195C141.212 104.514 141.215 104.801 141.294 105.055C141.372 105.309 141.51 105.531 141.707 105.722C141.908 105.919 142.155 106.088 142.448 106.23C142.74 106.376 143.062 106.498 143.415 106.595Z" fill="#006579"/>
<path d="M136.327 116.58C136.543 116.035 136.824 115.585 137.17 115.229C137.518 114.879 137.909 114.627 138.342 114.472C138.774 114.321 139.233 114.267 139.718 114.311C140.204 114.354 140.689 114.496 141.176 114.735L141.438 114.865C141.995 115.139 142.465 115.471 142.85 115.861C143.234 116.251 143.527 116.674 143.728 117.131C143.933 117.59 144.04 118.066 144.049 118.559C144.058 119.051 143.967 119.536 143.778 120.013C143.569 120.539 143.301 120.958 142.973 121.268C142.646 121.579 142.275 121.787 141.861 121.893C141.45 122.005 141.007 122.02 140.532 121.938C140.055 121.86 139.56 121.695 139.047 121.443L138.37 121.11L140.629 115.419L141.766 115.978L140.15 120.049L140.275 120.111C140.563 120.242 140.854 120.314 141.147 120.328C141.438 120.347 141.704 120.285 141.943 120.143C142.183 120 142.375 119.748 142.519 119.385C142.627 119.112 142.667 118.841 142.638 118.572C142.611 118.309 142.52 118.056 142.366 117.812C142.212 117.567 142.001 117.333 141.733 117.11C141.469 116.892 141.152 116.693 140.785 116.512L140.522 116.383C140.211 116.23 139.904 116.13 139.603 116.085C139.304 116.046 139.022 116.065 138.756 116.14C138.491 116.216 138.252 116.348 138.041 116.537C137.834 116.728 137.669 116.98 137.545 117.293C137.388 117.688 137.325 118.077 137.356 118.462C137.386 118.846 137.497 119.22 137.687 119.585L136.536 120.052C136.376 119.783 136.243 119.471 136.138 119.115C136.037 118.762 135.996 118.37 136.015 117.94C136.032 117.514 136.136 117.061 136.327 116.58Z" fill="#006579"/>
<path d="M141.293 132.949L131.977 126.641L132.827 125.086L142.142 131.393L141.293 132.949Z" fill="#006579"/>
<path d="M128.58 136.286C128.711 136.402 128.856 136.472 129.013 136.494C129.173 136.52 129.37 136.471 129.603 136.346C129.832 136.225 130.123 136.003 130.474 135.678C130.788 135.398 131.095 135.158 131.394 134.956C131.695 134.761 131.987 134.625 132.27 134.545C132.554 134.466 132.831 134.455 133.1 134.512C133.37 134.57 133.628 134.708 133.877 134.929C134.118 135.143 134.305 135.403 134.438 135.709C134.571 136.016 134.643 136.349 134.654 136.709C134.665 137.07 134.608 137.445 134.485 137.835C134.358 138.229 134.158 138.616 133.885 138.998C133.499 139.538 133.084 139.926 132.64 140.162C132.198 140.405 131.76 140.504 131.327 140.457C130.898 140.414 130.507 140.236 130.153 139.921L131.18 138.486C131.337 138.625 131.514 138.711 131.712 138.744C131.91 138.783 132.112 138.755 132.319 138.659C132.528 138.566 132.726 138.39 132.91 138.132C133.086 137.886 133.196 137.649 133.24 137.421C133.284 137.201 133.278 137.001 133.222 136.821C133.162 136.645 133.065 136.497 132.93 136.377C132.831 136.29 132.728 136.23 132.619 136.199C132.511 136.174 132.389 136.182 132.252 136.223C132.119 136.268 131.964 136.351 131.787 136.473C131.607 136.599 131.398 136.77 131.159 136.987C130.712 137.395 130.287 137.71 129.884 137.93C129.483 138.158 129.097 138.263 128.726 138.247C128.36 138.233 128 138.069 127.645 137.755C127.382 137.521 127.185 137.246 127.054 136.928C126.924 136.618 126.861 136.276 126.865 135.903C126.873 135.534 126.948 135.149 127.091 134.75C127.23 134.354 127.442 133.958 127.726 133.561C128.144 132.977 128.593 132.567 129.072 132.33C129.556 132.097 130.022 132.008 130.472 132.063C130.923 132.126 131.311 132.301 131.636 132.59L130.643 133.978C130.387 133.776 130.139 133.677 129.899 133.678C129.66 133.687 129.437 133.761 129.229 133.901C129.022 134.049 128.842 134.23 128.689 134.444C128.504 134.702 128.38 134.946 128.317 135.176C128.258 135.409 128.25 135.62 128.295 135.808C128.342 136 128.438 136.159 128.58 136.286Z" fill="#006579"/>
<path d="M89 7.69932C83.8542 6.38986 78.4991 5.69849 73 5.69849C33.2355 5.69849 1 41.8494 1 86.4437C1 131.038 33.2355 167.189 73 167.189C92.2508 167.189 109.737 158.716 122.655 144.914" stroke="#004F55" stroke-width="2" stroke-miterlimit="10" stroke-linecap="round"/>
<path fill-rule="evenodd" clip-rule="evenodd" d="M77.6371 50.2476C94.515 50.2476 108.274 65.5746 108.274 84.6048C108.274 103.532 94.6067 118.962 77.6371 118.962C60.6674 118.859 47 103.532 47 84.6048C47 65.5746 60.6674 50.2476 77.6371 50.2476Z" fill="#006579"/>
<path fill-rule="evenodd" clip-rule="evenodd" d="M77.6371 54.5679C85.7091 54.5679 91.4879 58.3739 97.3585 64.1344C92.497 70.615 86.1677 75.4497 77.9122 75.1411C72.2251 74.9353 66.3545 72.2608 61.6764 68.8662L64.7034 65.4717C67.4553 68.5576 74.2431 71.2322 78.004 71.2322C82.9573 71.2322 88.5527 68.8662 91.8549 64.7516C88.3692 61.2542 82.04 58.8882 77.5453 58.8882C64.9786 58.9911 54.7968 70.4092 54.7968 84.6047C54.7968 98.6974 64.9786 110.218 77.6371 110.218C90.2038 110.218 100.477 98.8002 100.477 84.6047C100.477 79.5643 99.1931 74.8325 96.8999 70.9236C97.8172 69.792 98.7344 68.5576 99.4683 67.3232C102.587 72.2608 104.422 78.227 104.422 84.7076C104.422 101.269 92.497 114.642 77.7288 114.642C62.9606 114.642 50.8525 101.166 50.8525 84.6047C50.8525 68.0433 62.8689 54.5679 77.6371 54.5679Z" fill="white"/>
<path d="M77.9123 68.5577C79.584 68.5577 80.9393 67.0379 80.9393 65.1631C80.9393 63.2884 79.584 61.7686 77.9123 61.7686C76.2405 61.7686 74.8853 63.2884 74.8853 65.1631C74.8853 67.0379 76.2405 68.5577 77.9123 68.5577Z" fill="white"/>
<path fill-rule="evenodd" clip-rule="evenodd" d="M91.488 78.3298V80.2843C82.6822 79.8728 73.968 80.1814 65.0704 80.1814L65.2539 78.227L65.0704 76.4782L66.2629 76.684L70.2072 76.9926H75.7109L75.8026 75.861V72.8779L80.2972 73.0837L80.389 75.5524V76.8897H85.5257L89.7452 76.5811L91.5798 76.3754L91.488 78.3298Z" fill="white"/>
<path fill-rule="evenodd" clip-rule="evenodd" d="M91.488 84.3993V86.4566L89.1031 86.3537L83.9664 86.148L78.0958 86.0451L71.7666 86.148L67.5471 86.3537H65.0704L65.2539 84.2964L65.0704 82.4448L66.2629 82.6506L70.2072 82.9592H85.6175L89.8369 82.6506L91.5798 82.4448L91.488 84.3993Z" fill="white"/>
<path fill-rule="evenodd" clip-rule="evenodd" d="M91.2128 90.6739V92.7313L88.9196 92.6284L83.7829 92.4227L78.0957 92.3198L71.95 92.4227L67.8222 92.6284H65.3456L65.4373 90.5711L65.3456 88.7195L66.4463 88.9252L70.2989 89.2338H85.434L89.5617 88.9252L91.3045 88.7195L91.2128 90.6739Z" fill="white"/>
<path fill-rule="evenodd" clip-rule="evenodd" d="M94.0564 99.8288L90.9376 103.326C87.6354 99.2116 82.9573 97.8743 78.004 97.8743C74.3349 97.8743 67.4553 100.652 64.7035 103.635L61.6765 100.137C66.3546 96.8457 72.2252 93.9654 77.9123 93.8625C83.4159 93.8625 89.47 96.0227 94.0564 99.8288Z" fill="white"/>
</svg>
