<svg width="65" height="65" viewBox="0 0 65 65" fill="none" xmlns="http://www.w3.org/2000/svg">
<path fill-rule="evenodd" clip-rule="evenodd" d="M32.5146 0.129639C50.1434 0.129639 64.5146 14.4051 64.5146 32.1296C64.5146 49.7584 50.2392 64.1296 32.5146 64.1296C14.7901 64.0338 0.514648 49.7584 0.514648 32.1296C0.514648 14.4051 14.7901 0.129639 32.5146 0.129639Z" fill="#006579"/>
<path fill-rule="evenodd" clip-rule="evenodd" d="M32.5146 4.15381C40.9458 4.15381 46.9817 7.69872 53.1134 13.064C48.0356 19.0999 41.4248 23.6029 32.802 23.3155C26.8619 23.1239 20.7302 20.6329 15.844 17.4712L19.0056 14.3095C21.8799 17.1837 28.9697 19.6748 32.8979 19.6748C38.0715 19.6748 43.9158 17.4712 47.3649 13.6388C43.7242 10.3814 37.1134 8.17776 32.4188 8.17776C19.2931 8.27357 8.65834 18.9083 8.65834 32.1299C8.65834 45.2556 19.2931 55.9861 32.5146 55.9861C45.6404 55.9861 56.3709 45.3514 56.3709 32.1299C56.3709 27.4352 55.0296 23.0281 52.6344 19.3873C53.5925 18.3335 54.5506 17.1838 55.317 16.034C58.5745 20.6329 60.4907 26.1897 60.4907 32.2257C60.4907 47.6508 48.0356 60.1059 32.6104 60.1059C17.1853 60.1059 4.53857 47.555 4.53857 32.1299C4.53857 16.7047 17.0895 4.15381 32.5146 4.15381Z" fill="white"/>
<path d="M32.8021 17.1837C34.5483 17.1837 35.9638 15.7682 35.9638 14.022C35.9638 12.2759 34.5483 10.8604 32.8021 10.8604C31.056 10.8604 29.6404 12.2759 29.6404 14.022C29.6404 15.7682 31.056 17.1837 32.8021 17.1837Z" fill="white"/>
<path fill-rule="evenodd" clip-rule="evenodd" d="M46.9817 26.2854V28.1057C37.7841 27.7225 28.6823 28.0099 19.3889 28.0099L19.5805 26.1896L19.3889 24.5608L20.6344 24.7524L24.7542 25.0399H30.5027L30.5985 23.986V21.2075L35.2931 21.3991L35.3889 23.6985V24.944H40.7542L45.1614 24.6566L47.0775 24.465L46.9817 26.2854Z" fill="white"/>
<path fill-rule="evenodd" clip-rule="evenodd" d="M46.9817 31.9383V33.8544L44.4907 33.7586L39.1254 33.567L32.9937 33.4712L26.3829 33.567L21.9757 33.7586H19.3889L19.5805 31.8425L19.3889 30.1179L20.6344 30.3095L24.7542 30.597H40.85L45.2572 30.3095L47.0775 30.1179L46.9817 31.9383Z" fill="white"/>
<path fill-rule="evenodd" clip-rule="evenodd" d="M46.6944 37.7825V39.6987L44.2991 39.6029L38.9339 39.4113L32.9938 39.3155L26.5746 39.4113L22.2632 39.6029H19.6764L19.7722 37.6867L19.6764 35.9622L20.8261 36.1538L24.85 36.4412H40.6584L44.9698 36.1538L46.7902 35.9622L46.6944 37.7825Z" fill="white"/>
<path fill-rule="evenodd" clip-rule="evenodd" d="M49.6644 46.3093L46.4069 49.5668C42.9578 45.7345 38.0715 44.489 32.8979 44.489C29.0656 44.489 21.8799 47.0758 19.0057 49.8542L15.844 46.5968C20.7302 43.5309 26.862 40.8482 32.8021 40.7524C38.5506 40.7524 44.8739 42.7644 49.6644 46.3093Z" fill="white"/>
</svg>
