<svg width="161" height="162" viewBox="0 0 161 162" fill="none" xmlns="http://www.w3.org/2000/svg">
<path d="M105.213 13.5461C105.473 13.6698 105.73 13.7296 105.983 13.7255C106.242 13.7191 106.477 13.6527 106.689 13.5262C106.904 13.4018 107.074 13.2201 107.196 12.9811L108.698 13.6949C108.48 14.159 108.154 14.5199 107.718 14.7776C107.282 15.0354 106.796 15.1742 106.258 15.1941C105.722 15.2095 105.189 15.0915 104.66 14.8399C104.113 14.5799 103.679 14.2599 103.356 13.8797C103.036 13.495 102.816 13.0715 102.696 12.6092C102.576 12.1468 102.546 11.6646 102.604 11.1626C102.666 10.6626 102.809 10.1629 103.032 9.66341L103.136 9.42927C103.359 8.92978 103.634 8.49296 103.961 8.1188C104.294 7.74228 104.67 7.45073 105.088 7.24413C105.506 7.03754 105.96 6.93703 106.449 6.9426C106.94 6.9437 107.457 7.07319 108 7.33106C108.573 7.6036 109.024 7.95855 109.353 8.39591C109.683 8.82881 109.881 9.30911 109.945 9.8368C110.015 10.3621 109.935 10.8967 109.703 11.4405L108.201 10.7267C108.307 10.4528 108.349 10.1805 108.325 9.90987C108.308 9.63683 108.222 9.38533 108.068 9.15537C107.918 8.9275 107.698 8.74439 107.407 8.60602C107.085 8.45298 106.789 8.39304 106.517 8.4262C106.248 8.4549 106.003 8.55467 105.783 8.72551C105.564 8.89189 105.366 9.10298 105.188 9.35879C105.016 9.61223 104.863 9.88835 104.73 10.1871L104.626 10.4213C104.492 10.7201 104.388 11.0215 104.311 11.3255C104.234 11.6295 104.205 11.9213 104.225 12.2009C104.251 12.4782 104.34 12.734 104.492 12.9684C104.646 13.1984 104.886 13.3909 105.213 13.5461Z" fill="#006579"/>
<path d="M117.188 19.8282L120.505 14.7511L121.961 15.7657L117.621 22.4083L116.249 21.4524L117.188 19.8282ZM118.295 18.5895L118.79 18.9168C118.499 19.3629 118.182 19.7407 117.839 20.0501C117.5 20.3555 117.139 20.5775 116.756 20.716C116.377 20.8505 115.98 20.8865 115.565 20.824C115.153 20.7575 114.729 20.5719 114.292 20.2672C113.975 20.0464 113.715 19.7968 113.511 19.5182C113.308 19.2396 113.174 18.935 113.11 18.6044C113.05 18.2766 113.071 17.9187 113.172 17.5309C113.274 17.1431 113.468 16.7303 113.754 16.2923L116.558 12.001L118.008 13.0114L115.196 17.3149C115.038 17.5564 114.934 17.7786 114.883 17.9814C114.835 18.1801 114.827 18.3622 114.859 18.5275C114.891 18.6928 114.958 18.8406 115.06 18.971C115.161 19.1013 115.284 19.2168 115.429 19.3174C115.842 19.6053 116.22 19.7498 116.564 19.751C116.914 19.7509 117.232 19.6446 117.517 19.432C117.805 19.2223 118.065 18.9414 118.295 18.5895Z" fill="#006579"/>
<path d="M126.712 27.7847C126.831 27.6562 126.908 27.5093 126.942 27.3442C126.979 27.1755 126.949 26.9609 126.852 26.7006C126.758 26.4436 126.575 26.1117 126.302 25.7046C126.067 25.3422 125.868 24.9913 125.705 24.6519C125.549 24.3124 125.446 23.9874 125.395 23.6771C125.344 23.3668 125.357 23.0709 125.432 22.7894C125.507 22.5079 125.658 22.2458 125.883 22.0031C126.101 21.7675 126.359 21.5941 126.654 21.4828C126.95 21.3716 127.266 21.3281 127.602 21.3525C127.938 21.3768 128.282 21.4745 128.635 21.6454C128.991 21.8198 129.335 22.0714 129.667 22.4002C130.138 22.866 130.465 23.3471 130.648 23.8435C130.839 24.3398 130.894 24.8162 130.816 25.2727C130.741 25.7257 130.543 26.1252 130.222 26.4715L128.97 25.2333C129.113 25.0798 129.207 24.8993 129.254 24.6919C129.307 24.4844 129.297 24.2659 129.224 24.0365C129.155 23.8036 129.008 23.5758 128.783 23.3532C128.568 23.1408 128.357 23.0001 128.149 22.931C127.947 22.8618 127.761 22.8483 127.589 22.8905C127.421 22.936 127.275 23.0248 127.152 23.1569C127.063 23.2533 126.999 23.3578 126.961 23.4706C126.929 23.5833 126.927 23.7145 126.954 23.8644C126.984 24.0107 127.049 24.1842 127.148 24.3851C127.251 24.5893 127.393 24.8295 127.575 25.1055C127.918 25.623 128.176 26.1074 128.348 26.5585C128.527 27.0096 128.594 27.4315 128.548 27.8243C128.505 28.2136 128.323 28.5814 128.002 28.9276C127.763 29.1846 127.491 29.367 127.185 29.475C126.886 29.5828 126.563 29.6159 126.217 29.5743C125.873 29.5291 125.522 29.4107 125.162 29.2189C124.806 29.0305 124.454 28.7651 124.108 28.4226C123.6 27.9191 123.255 27.3998 123.074 26.8649C122.896 26.3263 122.852 25.82 122.94 25.3458C123.035 24.8714 123.23 24.4754 123.525 24.1577L124.734 25.3548C124.526 25.6077 124.413 25.862 124.395 26.1178C124.383 26.3734 124.434 26.619 124.548 26.8545C124.668 27.0899 124.821 27.3001 125.008 27.485C125.233 27.7076 125.45 27.864 125.659 27.954C125.871 28.0405 126.066 28.0696 126.245 28.0413C126.427 28.0094 126.583 27.9239 126.712 27.7847Z" fill="#006579"/>
<path d="M138.494 32.6029L137.497 33.4204L134.773 29.879L135.77 29.0615L138.494 32.6029ZM138.057 28.8524L139.133 30.2515L133.198 35.1194C133.009 35.2743 132.885 35.4206 132.825 35.5584C132.771 35.6969 132.766 35.8305 132.809 35.959C132.853 36.0875 132.927 36.2194 133.031 36.3549C133.105 36.4517 133.182 36.5399 133.262 36.6196C133.342 36.6994 133.408 36.7617 133.461 36.8066L132.424 37.667C132.301 37.5788 132.166 37.4681 132.021 37.335C131.878 37.2057 131.731 37.0424 131.579 36.845C131.332 36.5238 131.168 36.1944 131.087 35.8569C131.01 35.5163 131.044 35.1726 131.19 34.8258C131.335 34.479 131.618 34.1337 132.037 33.79L138.057 28.8524Z" fill="#006579"/>
<path d="M138.084 38.9297L138.228 38.8422C138.716 38.5457 139.21 38.3428 139.71 38.2336C140.213 38.1219 140.697 38.108 141.16 38.192C141.631 38.2777 142.063 38.4659 142.459 38.7566C142.862 39.0489 143.206 39.4455 143.491 39.9462C143.778 40.4511 143.947 40.954 143.996 41.4551C144.052 41.9579 144.002 42.4422 143.846 42.9081C143.695 43.3714 143.449 43.8032 143.11 44.2035C142.774 44.6012 142.363 44.9483 141.874 45.2449L141.73 45.3323C141.242 45.6289 140.748 45.8318 140.249 45.941C139.749 46.0502 139.264 46.0619 138.794 45.9762C138.328 45.888 137.895 45.6998 137.495 45.4116C137.1 45.121 136.759 44.7253 136.474 44.2246C136.186 43.7197 136.015 43.2159 135.959 42.7131C135.909 42.212 135.96 41.7298 136.112 41.2665C136.268 40.8006 136.514 40.3688 136.849 39.9711C137.184 39.5734 137.596 39.2262 138.084 38.9297ZM139.102 40.3761L138.958 40.4635C138.653 40.6485 138.383 40.8552 138.148 41.0836C137.913 41.312 137.732 41.5562 137.605 41.8162C137.478 42.0762 137.416 42.3477 137.42 42.6308C137.424 42.9139 137.509 43.2019 137.676 43.4946C137.838 43.7789 138.036 43.9895 138.272 44.1265C138.509 44.2677 138.769 44.344 139.051 44.3556C139.333 44.3672 139.627 44.3224 139.935 44.2213C140.245 44.1245 140.552 43.9835 140.857 43.7985L141.001 43.7111C141.301 43.5286 141.566 43.3223 141.794 43.0922C142.029 42.8638 142.211 42.6162 142.34 42.3494C142.472 42.0869 142.535 41.8141 142.531 41.531C142.534 41.2496 142.453 40.9646 142.289 40.6761C142.124 40.3876 141.921 40.174 141.679 40.0354C141.444 39.8984 141.184 39.8254 140.898 39.8164C140.612 39.8073 140.315 39.8534 140.007 39.9545C139.704 40.053 139.402 40.1936 139.102 40.3761Z" fill="#006579"/>
<path d="M147.657 52.2029L141.679 54.2316L141.143 52.5496L148.648 50.0031L149.152 51.5874L147.657 52.2029ZM145.622 52.5921L145.446 52.0174C145.964 51.8417 146.464 51.7444 146.944 51.7256C147.425 51.7069 147.867 51.7682 148.271 51.9096C148.679 52.0495 149.03 52.2757 149.324 52.5883C149.625 52.904 149.853 53.3085 150.01 53.8017C150.12 54.146 150.169 54.4774 150.157 54.7957C150.152 55.1171 150.076 55.4186 149.93 55.7002C149.786 55.9864 149.565 56.2418 149.267 56.4665C148.972 56.6957 148.588 56.8904 148.116 57.0504L143.115 58.7473L142.58 57.0653L147.435 55.4178C147.801 55.2939 148.069 55.1408 148.242 54.9585C148.416 54.7809 148.514 54.5748 148.537 54.3402C148.566 54.1088 148.536 53.8535 148.447 53.5743C148.346 53.2579 148.2 53.0084 148.009 52.8259C147.819 52.648 147.598 52.5245 147.346 52.4556C147.093 52.3866 146.82 52.3658 146.527 52.3932C146.233 52.4207 145.931 52.4869 145.622 52.5921ZM147.556 57.1246L147.131 56.3948C147.584 56.241 148.032 56.1587 148.474 56.1478C148.923 56.14 149.339 56.2077 149.722 56.3507C150.112 56.4969 150.453 56.7239 150.746 57.0319C151.039 57.3398 151.261 57.7311 151.412 58.2057C151.534 58.5919 151.591 58.9543 151.581 59.2928C151.577 59.6344 151.498 59.9499 151.344 60.2392C151.19 60.5286 150.953 60.7895 150.632 61.022C150.317 61.2529 149.909 61.4531 149.41 61.6225L144.554 63.27L144.017 61.5809L148.879 59.9312C149.258 59.8025 149.534 59.647 149.707 59.4648C149.881 59.2871 149.975 59.0849 149.99 58.8582C150.01 58.6299 149.975 58.3761 149.886 58.097C149.803 57.8364 149.681 57.6225 149.521 57.4554C149.366 57.2914 149.182 57.1709 148.968 57.094C148.758 57.0156 148.534 56.9783 148.294 56.9823C148.056 56.9909 147.81 57.0383 147.556 57.1246Z" fill="#006579"/>
<path d="M158.023 78.4241L146.789 79.034L146.699 77.2639L157.932 76.6539L158.023 78.4241Z" fill="#006579"/>
<path d="M148.233 88.7001L152 88.9961C152.283 89.0182 152.53 88.9862 152.742 88.9C152.954 88.8138 153.123 88.6704 153.251 88.4698C153.378 88.2741 153.453 88.0204 153.476 87.7087C153.497 87.4214 153.466 87.1693 153.385 86.9522C153.303 86.7352 153.183 86.5617 153.026 86.4319C152.869 86.302 152.686 86.2288 152.477 86.2124L152.606 84.4593C152.918 84.4838 153.214 84.583 153.495 84.7569C153.776 84.9308 154.02 85.1704 154.228 85.4757C154.435 85.7809 154.59 86.1384 154.692 86.548C154.794 86.9577 154.827 87.4108 154.79 87.9075C154.747 88.5016 154.608 89.0197 154.375 89.4618C154.141 89.9087 153.813 90.2478 153.389 90.479C152.97 90.7155 152.459 90.81 151.855 90.7626L148.343 90.4867C147.983 90.4584 147.658 90.4573 147.367 90.4835C147.08 90.5148 146.829 90.571 146.613 90.652L146.496 90.6428L146.629 88.8386C146.825 88.7707 147.07 88.7239 147.366 88.6982C147.666 88.6777 147.955 88.6783 148.233 88.7001ZM151.434 89.2087L150.345 89.1378L150.438 87.8742C150.462 87.5479 150.451 87.2581 150.406 87.0048C150.366 86.7519 150.294 86.538 150.189 86.3633C150.085 86.1885 149.953 86.0533 149.793 85.9575C149.634 85.8617 149.449 85.8056 149.24 85.7891C149.031 85.7727 148.835 85.8063 148.653 85.8899C148.475 85.9739 148.331 86.1046 148.22 86.282C148.108 86.4643 148.043 86.6893 148.023 86.9572C147.997 87.3175 148.046 87.6374 148.173 87.9167C148.304 88.2012 148.47 88.4298 148.673 88.6025C148.881 88.7755 149.081 88.8745 149.275 88.8996L148.452 89.4079C148.257 89.3338 148.05 89.2172 147.832 89.058C147.613 88.8988 147.408 88.6965 147.215 88.4512C147.027 88.2112 146.879 87.9277 146.771 87.6009C146.663 87.2789 146.624 86.9134 146.654 86.5043C146.692 85.9881 146.828 85.536 147.062 85.1479C147.301 84.7601 147.604 84.4656 147.972 84.2643C148.344 84.0633 148.754 83.9804 149.202 84.0156C149.62 84.0485 149.985 84.1554 150.294 84.3365C150.609 84.5228 150.864 84.778 151.061 85.102C151.257 85.4308 151.394 85.8237 151.473 86.2805C151.557 86.7377 151.578 87.2535 151.535 87.8282L151.434 89.2087Z" fill="#006579"/>
<path d="M156.66 99.1919L156.249 100.907L146.995 98.5428L145.396 97.9606L145.768 96.409L156.66 99.1919ZM148.06 104.147L147.911 104.109C147.344 103.964 146.837 103.767 146.39 103.517C145.947 103.273 145.581 102.978 145.293 102.632C145.003 102.291 144.806 101.909 144.702 101.484C144.602 101.066 144.61 100.612 144.728 100.124C144.842 99.6444 145.032 99.2498 145.297 98.9398C145.562 98.6299 145.889 98.3962 146.278 98.2387C146.666 98.086 147.106 97.9947 147.6 97.9648C148.094 97.9348 148.625 97.9597 149.193 98.0393L149.668 98.1607C150.211 98.3649 150.692 98.5986 151.11 98.8616C151.533 99.1259 151.882 99.4189 152.156 99.7407C152.434 100.068 152.62 100.431 152.716 100.828C152.81 101.23 152.801 101.668 152.687 102.142C152.569 102.636 152.37 103.046 152.091 103.372C151.811 103.703 151.466 103.95 151.056 104.112C150.651 104.276 150.195 104.358 149.688 104.359C149.179 104.365 148.637 104.295 148.06 104.147ZM148.322 102.394L148.471 102.432C148.816 102.52 149.147 102.575 149.463 102.595C149.784 102.617 150.076 102.59 150.34 102.517C150.602 102.448 150.826 102.319 151.012 102.13C151.201 101.946 151.335 101.691 151.414 101.364C151.486 101.06 151.497 100.786 151.445 100.541C151.393 100.296 151.295 100.077 151.151 99.8842C151.007 99.6912 150.827 99.5218 150.611 99.376C150.394 99.2349 150.151 99.1151 149.884 99.0166L148.601 98.6887C148.236 98.6408 147.888 98.6476 147.557 98.7091C147.23 98.7766 146.946 98.9155 146.705 99.1258C146.469 99.3373 146.302 99.6447 146.205 100.048C146.129 100.366 146.129 100.65 146.204 100.901C146.28 101.152 146.415 101.371 146.612 101.557C146.811 101.749 147.058 101.912 147.352 102.048C147.644 102.188 147.968 102.303 148.322 102.394Z" fill="#006579"/>
<path d="M140.969 111.897C141.199 111.358 141.495 110.911 141.854 110.555C142.216 110.205 142.62 109.949 143.067 109.788C143.511 109.631 143.98 109.569 144.476 109.603C144.972 109.636 145.466 109.765 145.959 109.99L146.226 110.111C146.79 110.369 147.265 110.685 147.651 111.06C148.038 111.435 148.33 111.845 148.527 112.289C148.729 112.735 148.83 113.2 148.83 113.683C148.831 114.166 148.73 114.643 148.528 115.115C148.305 115.635 148.023 116.051 147.683 116.363C147.343 116.674 146.96 116.886 146.535 116.998C146.113 117.116 145.659 117.14 145.174 117.069C144.688 117.002 144.185 116.851 143.665 116.613L142.979 116.3L145.389 110.671L146.541 111.197L144.817 115.224L144.944 115.282C145.237 115.404 145.533 115.47 145.832 115.478C146.129 115.49 146.402 115.424 146.649 115.279C146.897 115.135 147.098 114.883 147.252 114.524C147.367 114.255 147.412 113.988 147.387 113.724C147.364 113.467 147.276 113.22 147.122 112.984C146.969 112.747 146.757 112.522 146.488 112.308C146.221 112.1 145.901 111.911 145.528 111.741L145.261 111.619C144.946 111.475 144.635 111.384 144.327 111.346C144.022 111.314 143.733 111.337 143.46 111.417C143.188 111.496 142.941 111.631 142.722 111.82C142.507 112.012 142.334 112.263 142.201 112.572C142.034 112.963 141.963 113.346 141.987 113.722C142.012 114.099 142.119 114.464 142.307 114.818L141.121 115.299C140.962 115.039 140.832 114.735 140.731 114.388C140.634 114.044 140.599 113.66 140.626 113.238C140.651 112.82 140.765 112.373 140.969 111.897Z" fill="#006579"/>
<path d="M145.9 127.41L136.373 121.428L137.272 119.901L146.8 125.883L145.9 127.41Z" fill="#006579"/>
<path d="M132.733 130.604C132.868 130.716 133.018 130.782 133.181 130.803C133.348 130.826 133.552 130.777 133.795 130.654C134.034 130.535 134.338 130.317 134.706 130C135.034 129.727 135.355 129.491 135.667 129.294C135.981 129.103 136.285 128.968 136.581 128.889C136.876 128.81 137.164 128.796 137.443 128.85C137.723 128.903 137.991 129.035 138.247 129.246C138.496 129.45 138.689 129.7 138.825 129.996C138.96 130.291 139.033 130.612 139.041 130.961C139.05 131.309 138.988 131.673 138.857 132.051C138.722 132.433 138.512 132.81 138.225 133.181C137.819 133.707 137.385 134.086 136.922 134.318C136.46 134.557 136.005 134.656 135.556 134.615C135.11 134.577 134.705 134.408 134.339 134.107L135.417 132.709C135.579 132.843 135.763 132.924 135.968 132.954C136.174 132.991 136.385 132.962 136.6 132.867C136.818 132.775 137.025 132.604 137.218 132.352C137.403 132.113 137.519 131.883 137.566 131.662C137.614 131.449 137.609 131.255 137.552 131.081C137.492 130.912 137.392 130.77 137.252 130.655C137.151 130.571 137.043 130.514 136.931 130.485C136.819 130.462 136.691 130.471 136.549 130.512C136.41 130.556 136.248 130.638 136.064 130.757C135.876 130.881 135.657 131.049 135.407 131.26C134.939 131.659 134.495 131.967 134.075 132.184C133.656 132.407 133.254 132.513 132.87 132.5C132.489 132.49 132.116 132.334 131.75 132.033C131.479 131.81 131.276 131.545 131.142 131.239C131.009 130.94 130.946 130.61 130.954 130.25C130.964 129.892 131.045 129.52 131.197 129.132C131.345 128.748 131.568 128.363 131.866 127.977C132.305 127.408 132.774 127.008 133.274 126.775C133.779 126.545 134.264 126.455 134.731 126.504C135.2 126.561 135.601 126.727 135.937 127.003L134.894 128.354C134.63 128.162 134.373 128.067 134.124 128.071C133.875 128.081 133.642 128.155 133.425 128.293C133.209 128.437 133.021 128.614 132.859 128.822C132.666 129.074 132.535 129.311 132.468 129.533C132.405 129.759 132.395 129.963 132.44 130.145C132.488 130.33 132.586 130.483 132.733 130.604Z" fill="#006579"/>
<path d="M91.8976 7.37942C86.5823 6.12529 81.0509 5.46313 75.3707 5.46313C34.2969 5.46313 1 40.0864 1 82.7965C1 125.506 34.2969 160.13 75.3707 160.13C95.2554 160.13 113.317 152.015 126.661 138.796" stroke="#004F55" stroke-width="2" stroke-miterlimit="10" stroke-linecap="round"/>
</svg>
