<svg width="154" height="51" viewBox="0 0 154 51" fill="none" xmlns="http://www.w3.org/2000/svg">
<path fill-rule="evenodd" clip-rule="evenodd" d="M131.675 21.6387L133.573 19.8801V21.6387H137.598V0H133.497V5.42879H123.701C122.79 5.42879 120.664 5.50525 120.664 8.33433V18.7331C120.664 20.4153 121.879 21.5622 123.625 21.5622H131.675V21.6387ZM133.497 18.4273H126.207C124.916 18.4273 124.764 18.2744 124.764 16.9745V9.86357C124.764 8.7931 124.764 8.4108 126.283 8.4108H133.497V18.4273ZM117.702 7.41679C117.702 6.11694 116.867 5.42879 115.5 5.42879H102.894L102.363 8.64018H112.387C113.374 8.64018 113.602 8.7931 113.602 9.71064V10.3988L102.894 12.081C102.059 12.2339 101.452 12.8456 101.452 13.8396V19.1154C101.452 20.9505 102.819 21.6387 104.413 21.6387H111.703L113.677 19.8801V21.6387H117.702V7.41679ZM106.615 18.4273C105.856 18.4273 105.476 18.2744 105.476 17.4333V15.2924C105.476 14.7571 105.628 14.1454 106.463 13.9925L113.526 12.922V18.4273H106.615ZM87.4033 18.4273C86.4921 18.4273 86.1883 18.2744 86.1883 17.3568V5.42879H82.0878V18.9625C82.0878 20.5682 82.999 21.5622 84.4418 21.5622H92.567L94.4655 19.8036V21.5622H98.5661V5.42879H94.4655V18.4273H87.4033ZM62.6479 4.51124C62.6479 3.51724 62.8757 3.28786 63.9388 3.28786H73.5069C74.57 3.28786 74.8737 3.5937 74.8737 4.51124V17.051C74.8737 18.045 74.4941 18.2744 73.5069 18.2744H70.4694V13.4573H67.1282V18.3508H64.0148C62.9517 18.3508 62.7238 18.1214 62.7238 17.1274V4.51124H62.6479ZM67.0523 24.5442H70.3935V21.6387H74.7219C77.3797 21.6387 79.1262 20.7211 79.1262 17.8156V3.82309C79.1262 0.917541 77.3797 0 74.7219 0H62.7998C60.142 0 58.3954 0.917541 58.3954 3.82309V17.7391C58.3954 20.6447 60.142 21.5622 62.7998 21.5622H67.0523V24.5442Z" fill="white"/>
<path fill-rule="evenodd" clip-rule="evenodd" d="M154 40.4483C153.924 38.0016 153.317 37.237 151.494 37.084L145.191 36.3959C143.445 36.2429 143.369 36.09 143.369 34.9431C143.369 33.6432 143.445 33.5668 144.736 33.5668H153.468L153.089 30.8142H142.609C141.015 30.8142 140.028 31.7317 140.028 33.1845V35.1725C140.028 37.5428 140.407 38.7662 142.685 38.9956L149.14 39.6837C150.203 39.7602 150.431 39.9896 150.431 40.6777V41.2894C150.431 41.9011 150.355 42.1305 149.52 42.1305H140.483L140.939 44.8067H150.887C153.089 44.8067 153.696 43.8127 153.848 42.6657C154 42.054 154 41.7482 154 40.4483ZM137.674 25.9971H134.18V44.8831H137.674V25.9971ZM131.523 32.9551C131.523 31.7317 130.687 30.7377 129.245 30.7377H119.297C118.082 30.7377 116.867 31.4259 116.867 32.9551V41.9776C116.867 43.9656 118.234 44.8067 119.828 44.8067H130.156L130.763 42.1305H121.651C120.664 42.1305 120.436 41.9011 120.436 41.06V39.7602H129.169C130.839 39.7602 131.371 39.1485 131.371 37.8486V32.9551H131.523ZM128.03 36.6253C128.03 37.1605 128.106 37.6193 126.966 37.6193H120.512V34.3314C120.512 33.7197 120.588 33.3374 121.423 33.3374H127.194C127.954 33.3374 128.03 33.7197 128.03 34.2549V36.6253ZM111.779 44.8067C113.298 44.8067 114.361 43.8127 114.361 42.2834V33.2609C114.361 30.8142 112.538 30.7377 111.703 30.7377H103.122V25.9971H99.5533V44.8831H103.046V43.3539L104.717 44.8831H111.779V44.8067ZM103.122 33.3374H109.501C110.792 33.3374 110.792 33.7197 110.792 34.6372V40.7542C110.792 41.9011 110.64 42.054 109.501 42.054H103.198V33.3374H103.122ZM96.9714 32.4963C96.9714 31.3494 96.212 30.7377 95.073 30.7377H84.0621L83.6065 33.4903H92.3393C93.1746 33.4903 93.4024 33.6432 93.4024 34.4843V35.096L84.0621 36.5488C83.3028 36.6253 82.7712 37.237 82.7712 38.078V42.6657C82.7712 44.2714 83.9862 44.8831 85.3531 44.8831H91.7318L93.4024 43.3539V44.8831H96.8955V32.4963H96.9714ZM87.3274 42.054C86.644 42.054 86.3402 41.9776 86.3402 41.213V39.3014C86.3402 38.8426 86.4921 38.3074 87.1755 38.1545L93.3264 37.237V42.054H87.3274ZM70.3935 41.9776V25.9971H66.5966V44.8831H80.2653L80.569 41.9776H70.3935Z" fill="#006579"/>
<path fill-rule="evenodd" clip-rule="evenodd" d="M25.3629 0C39.3353 0 50.7258 11.3928 50.7258 25.5382C50.7258 39.6072 39.4112 51.0765 25.3629 51.0765C11.3146 51 0 39.6072 0 25.5382C0 11.3928 11.3146 0 25.3629 0Z" fill="#006579"/>
<path fill-rule="evenodd" clip-rule="evenodd" d="M25.3629 3.21143C32.0454 3.21143 36.8294 6.04051 41.6893 10.3224C37.6647 15.1395 32.425 18.7332 25.5907 18.5038C20.8826 18.3509 16.0227 16.3629 12.1499 13.8396L14.6558 11.3164C16.9339 13.6102 22.5533 15.5982 25.6667 15.5982C29.7673 15.5982 34.3994 13.8396 37.1331 10.7811C34.2475 8.18144 29.0079 6.42282 25.287 6.42282C14.8836 6.49928 6.45463 14.9865 6.45463 25.5383C6.45463 36.0135 14.8836 44.5772 25.3629 44.5772C35.7663 44.5772 44.2712 36.09 44.2712 25.5383C44.2712 21.7916 43.2081 18.2744 41.3097 15.3688C42.069 14.5278 42.8284 13.6102 43.4359 12.6927C46.0177 16.3629 47.5365 20.7976 47.5365 25.6147C47.5365 37.9251 37.6647 47.8651 25.4389 47.8651C13.213 47.8651 3.18935 37.8486 3.18935 25.5383C3.18935 13.2279 13.1371 3.21143 25.3629 3.21143Z" fill="white"/>
<path d="M25.5907 13.6102C26.9747 13.6102 28.0966 12.4805 28.0966 11.087C28.0966 9.69341 26.9747 8.56372 25.5907 8.56372C24.2067 8.56372 23.0848 9.69341 23.0848 11.087C23.0848 12.4805 24.2067 13.6102 25.5907 13.6102Z" fill="white"/>
<path fill-rule="evenodd" clip-rule="evenodd" d="M36.8294 20.874V22.3268C29.5394 22.0209 22.3254 22.2503 14.9596 22.2503L15.1114 20.7975L14.9596 19.4977L15.9467 19.6506L19.212 19.88H23.7682L23.8442 19.0389V16.8215L27.5651 16.9745L27.641 18.8095V19.8035H31.8935L35.3866 19.5742L36.9053 19.4212L36.8294 20.874Z" fill="white"/>
<path fill-rule="evenodd" clip-rule="evenodd" d="M36.8294 25.3854V26.9146L34.855 26.8382L30.6026 26.6852L25.7426 26.6088L20.503 26.6852L17.0099 26.8382H14.9596L15.1114 25.3089L14.9596 23.9326L15.9467 24.0855L19.212 24.3149H31.9694L35.4625 24.0855L36.9053 23.9326L36.8294 25.3854Z" fill="white"/>
<path fill-rule="evenodd" clip-rule="evenodd" d="M36.6016 30.0495V31.5787L34.7032 31.5022L30.4507 31.3493L25.7426 31.2728L20.6548 31.3493L17.2377 31.5022H15.1874L15.2633 29.973L15.1874 28.5967L16.0986 28.7496L19.288 28.979H31.8176L35.2347 28.7496L36.6775 28.5967L36.6016 30.0495Z" fill="white"/>
<path fill-rule="evenodd" clip-rule="evenodd" d="M38.9556 36.8545L36.3738 39.4542C33.64 36.3957 29.7673 35.4017 25.6667 35.4017C22.6292 35.4017 16.9339 37.4662 14.6558 39.6835L12.1499 37.0838C16.0227 34.6371 20.8826 32.4961 25.5907 32.4197C30.1469 32.4197 35.1588 34.0254 38.9556 36.8545Z" fill="white"/>
</svg>
