<svg width="151" height="143" viewBox="0 0 151 143" fill="none" xmlns="http://www.w3.org/2000/svg">
<path d="M83 2.59113C79.3532 2.00469 75.6122 1.69995 71.8 1.69995C33.1401 1.69995 1.79999 33.04 1.79999 71.7C1.79999 110.36 33.1401 141.7 71.8 141.7C92.708 141.7 111.475 132.533 124.302 118" stroke="#004F55" stroke-width="2" stroke-miterlimit="10" stroke-linecap="round"/>
<path d="M92.1 8.30001C92.6 8.50001 93.1 8.40001 93.5 8.30001C93.9 8.20001 94.2 7.80001 94.4 7.40001L96.3 8.00001C96.1 8.60001 95.8 9.00001 95.3 9.40001C94.8 9.80001 94.2 10 93.6 10.1C92.9 10.2 92.3 10.2 91.6 10C90.3 9.60001 89.5 8.90001 89 7.80001C88.5 6.70001 88.5 5.50001 89 4.00001L89.1 3.80001C89.5 2.40001 90.3 1.40001 91.3 0.80001C92.3 0.20001 93.4 0.10001 94.7 0.50001C95.8 0.80001 96.6 1.40001 97 2.30001C97.5 3.10001 97.6 4.10001 97.3 5.10001L95.4 4.50001C95.5 4.00001 95.5 3.50001 95.3 3.00001C95.1 2.60001 94.7 2.30001 94.2 2.10001C93.5 1.90001 93 2.00001 92.4 2.30001C91.9 2.70001 91.5 3.30001 91.2 4.30001L91 4.70001C90.7 5.70001 90.6 6.50001 90.8 7.10001C91 7.70001 91.5 8.10001 92.1 8.30001Z" fill="#004F55"/>
<path d="M103.5 13.8C102.6 14.2 101.6 14.1 100.6 13.6C99.7 13.1 99.1 12.5 98.9 11.7C98.7 10.9 98.9 10 99.4 9L102.2 3.5L104.1 4.5L101.3 10C100.7 11.1 100.9 11.8 101.8 12.3C102.7 12.8 103.5 12.8 104.2 12.3L107.3 6.2L109.2 7.2L104.9 15.7L103.1 14.8L103.5 13.8Z" fill="#004F55"/>
<path d="M113.6 18.5C113.8 18.2 113.9 17.9 113.7 17.5C113.6 17.2 113.3 16.7 112.8 16.1C112.3 15.5 111.9 15 111.7 14.5C111.2 13.4 111.2 12.5 111.8 11.7C112.3 11 113 10.7 113.9 10.7C114.8 10.7 115.7 11 116.5 11.6C117.4 12.3 118 13.1 118.2 13.9C118.4 14.8 118.3 15.5999 117.7 16.2999L116 15C116.2 14.7 116.3 14.3 116.2 13.9C116.1 13.4999 115.9 13.0999 115.5 12.7999C115.1 12.4999 114.8 12.4 114.4 12.4C114 12.4 113.7 12.4999 113.5 12.7999C113.3 13.0999 113.3 13.3 113.4 13.7C113.5 14 113.8 14.5 114.4 15.1C115 15.7 115.4 16.2999 115.6 16.7999C115.8 17.2999 115.9 17.7 115.9 18.2C115.9 18.6 115.7 19 115.4 19.5C114.9 20.2 114.2 20.5 113.3 20.5C112.4 20.5 111.5 20.2 110.6 19.5C110 19 109.5 18.4999 109.2 17.9C108.9 17.3 108.7 16.7 108.8 16.1C108.8 15.5 109 15 109.3 14.5L111 15.7C110.7 16.1 110.6 16.5 110.8 17C110.9 17.4 111.2 17.8 111.7 18.2C112.2 18.5 112.6 18.7 112.9 18.7C113.1 19 113.4 18.8 113.6 18.5Z" fill="#004F55"/>
<path d="M126.3 17.6L124.7 19.2L125.9 20.4L124.8 21.5L123.6 20.2999L119.9 24.0999C119.6 24.3999 119.5 24.5999 119.5 24.7999C119.5 24.9999 119.6 25.3 119.9 25.5C120.1 25.7 120.3 25.8 120.5 26L119.3 27.2C118.9 27 118.5 26.7 118.2 26.4C117 25.2 117.1 24 118.4 22.7L122.2 18.9L121.1 17.7999L122.2 16.7L123.3 17.7999L124.9 16.2L126.3 17.6Z" fill="#004F55"/>
<path d="M124.8 25.9001C125.5 25.3001 126.3 25.0001 127.1 24.8001C127.9 24.6001 128.7 24.7001 129.4 25.0001C130.1 25.3001 130.7 25.8001 131.3 26.5001C132.1 27.5001 132.4 28.6001 132.2 29.7001C132 30.8001 131.4 31.8001 130.4 32.7001L130 33.0001C129.3 33.6001 128.5 33.9001 127.7 34.1001C126.9 34.3001 126.1 34.2001 125.4 33.9001C124.7 33.6001 124 33.1001 123.5 32.4001C122.7 31.3001 122.4 30.2001 122.6 29.0001C122.8 27.9001 123.5 26.9001 124.8 25.9001ZM125.9 27.7001C125.1 28.3001 124.6 28.9001 124.4 29.6001C124.2 30.3001 124.3 30.9001 124.8 31.4001C125.2 32.0001 125.8 32.2001 126.5 32.2001C127.2 32.2001 128 31.8001 128.8 31.2001C129.6 30.6001 130 30.0001 130.2 29.3001C130.4 28.6001 130.3 28.0001 129.9 27.4001C129.5 26.8001 128.9 26.6001 128.2 26.6001C127.6 26.7001 126.8 27.1001 125.9 27.7001Z" fill="#004F55"/>
<path d="M137.3 35.8001L136.4 36.3001C137.4 36.6001 138.1 37.2001 138.6 38.3001C139.1 39.5001 139.1 40.4001 138.4 41.3001C139.6 41.5001 140.4 42.2001 141 43.3001C141.4 44.2001 141.5 45.1001 141.2 45.8001C140.9 46.5001 140.2 47.1001 139.2 47.6001L133.5 50.3001L132.6 48.4001L138.2 45.8001C138.7 45.5001 139.1 45.2001 139.2 44.9001C139.3 44.5001 139.3 44.1001 139 43.5001C138.8 43.1001 138.5 42.8001 138.1 42.6001C137.7 42.4001 137.3 42.4001 136.9 42.4001L131 45.2001L130.1 43.3001L135.8 40.6001C136.8 40.1001 137.1 39.3001 136.6 38.3001C136.2 37.5001 135.7 37.1001 134.9 37.1001L128.7 40.0001L127.8 38.1001L136.4 34.1001L137.3 35.8001Z" fill="#004F55"/>
<path d="M136.1 61.7999L135.7 59.6999L149 57.3999L149.4 59.4999L136.1 61.7999Z" fill="#004F55"/>
<path d="M136.9 71.2C137.1 71.1 137.4 71 137.8 70.9C137.1 70.2 136.7 69.4 136.6 68.4C136.6 67.4 136.8 66.7 137.3 66C137.8 65.4 138.5 65.1 139.3 65C140.3 65 141.1 65.3 141.7 66C142.3 66.7 142.6 67.8 142.6 69.2V70.5H143.2C143.7 70.5 144.1 70.3 144.4 70C144.7 69.7 144.8 69.3 144.8 68.7C144.8 68.2 144.6 67.8 144.4 67.5C144.1 67.2 143.8 67.1 143.5 67.1L143.4 65C143.9 65 144.4 65.1 144.9 65.5C145.4 65.8 145.7 66.3 146 66.9C146.3 67.5 146.4 68.1 146.5 68.9C146.5 70 146.3 70.9 145.8 71.6C145.3 72.3 144.5 72.6 143.5 72.7L139.2 72.9C138.3 72.9 137.7 73.1 137.2 73.3H137.1L136.9 71.2ZM138.3 68.8C138.3 69.2 138.4 69.6 138.6 70C138.8 70.4 139.1 70.6 139.5 70.8L141.3 70.7V69.5C141.3 68.7 141.1 68.1 140.8 67.7C140.5 67.3 140.1 67.1 139.6 67.1C139.2 67.1 138.9 67.3 138.6 67.5C138.4 68 138.3 68.4 138.3 68.8Z" fill="#004F55"/>
<path d="M140.3 85.4001C138.8 85.2001 137.7 84.7001 136.9 84.0001C136.1 83.3001 135.8 82.3001 136 81.1001C136.1 80.0001 136.7 79.2001 137.5 78.7001L136.5 78.5001L136.8 76.6001L150.2 78.4001L149.9 80.5001L145 79.8001C145.6 80.5001 145.9 81.4001 145.7 82.4001C145.5 83.6001 145 84.4001 144.1 84.9001C143.2 85.4001 141.9 85.6001 140.4 85.4001H140.3ZM140.8 83.3001C141.8 83.4001 142.6 83.4001 143.2 83.1001C143.8 82.8001 144.1 82.3001 144.2 81.6001C144.3 80.7001 144 80.0001 143.3 79.5001L139.4 79.0001C138.5 79.3001 138 79.9001 137.9 80.8001C137.8 81.5001 138 82.0001 138.4 82.4001C138.8 82.8001 139.6 83.1001 140.6 83.3001H140.8Z" fill="#004F55"/>
<path d="M133.6 91.6001C134 90.3001 134.7 89.4001 135.8 88.8001C136.9 88.2001 138.1 88.2001 139.4 88.6001L139.7 88.7001C140.6 89.0001 141.4 89.4001 142 90.0001C142.6 90.6001 143 91.2001 143.2 92.0001C143.4 92.8001 143.4 93.5001 143.1 94.3001C142.7 95.5001 142 96.4001 141 96.8001C140 97.2001 138.8 97.2001 137.3 96.8001L136.5 96.5001L138.4 90.6001C137.6 90.4001 137 90.5001 136.4 90.8001C135.8 91.1001 135.4 91.6001 135.2 92.3001C134.9 93.2001 135 94.1001 135.6 94.9001L134.2 95.7001C133.8 95.2001 133.5 94.5001 133.4 93.8001C133.3 93.1001 133.3 92.3001 133.6 91.6001ZM141.4 93.8001C141.6 93.2001 141.5 92.7001 141.2 92.3001C140.9 91.8001 140.4 91.4001 139.8 91.1001L138.6 95.0001H138.8C139.5 95.2001 140.1 95.1001 140.5 94.9001C140.9 94.7001 141.2 94.3001 141.4 93.8001Z" fill="#004F55"/>
<path d="M130.3 100.2L131.2 98.3L143.4 104L142.5 105.9L130.3 100.2Z" fill="#004F55"/>
<path d="M127.9 109.5C128.2 109.7 128.5 109.7 128.9 109.6C129.2 109.4 129.7 109.1 130.2 108.6C130.7 108.1 131.2 107.7 131.7 107.4C132.7 106.8 133.6 106.7 134.5 107.3C135.2 107.7 135.6 108.4 135.7 109.3C135.8 110.2 135.6 111.1 135 112C134.4 113 133.7 113.6 132.8 113.9C131.9 114.2 131.1 114.1 130.4 113.6L131.5 111.8C131.8 112 132.2 112.1 132.6 112C133 111.9 133.3 111.6 133.6 111.2C133.9 110.8 134 110.4 133.9 110.1C133.9 109.7 133.7 109.5 133.4 109.3C133.1 109.1 132.8 109.1 132.5 109.2C132.2 109.3 131.7 109.7 131.1 110.3C130.5 110.9 130 111.3 129.5 111.6C129 111.9 128.6 112 128.2 112C127.8 112 127.3 111.9 126.9 111.6C126.2 111.1 125.8 110.5 125.7 109.6C125.6 108.7 125.9 107.8 126.5 106.8C126.9 106.1 127.4 105.6 128 105.3C128.6 104.9 129.1 104.7 129.7 104.7C130.3 104.7 130.8 104.8 131.3 105.1L130.2 106.8C129.8 106.6 129.3 106.5 128.9 106.7C128.5 106.9 128.1 107.2 127.8 107.7C127.5 108.2 127.4 108.6 127.4 109C127.5 109 127.6 109.3 127.9 109.5Z" fill="#004F55"/>
</svg>
